<svg width="127" height="30" viewBox="0 0 127 30" fill="none" xmlns="http://www.w3.org/2000/svg">
<g clip-path="url(#clip0_39_4)">
<path d="M1.6843 26V6.62114H5.78149V14.6168H14.0989V6.62114H18.1866V26H14.0989V17.9949H5.78149V26H1.6843ZM24.9049 26H20.5143L27.2042 6.62114H32.4842L39.1646 26H34.7741L29.9199 11.0495H29.7685L24.9049 26ZM24.6305 18.3828H35.0012V21.5811H24.6305V18.3828ZM41.4971 26V6.62114H49.1426C50.6061 6.62114 51.8552 6.88293 52.8897 7.40651C53.9306 7.92378 54.7223 8.65869 55.2648 9.61123C55.8136 10.5575 56.088 11.6709 56.088 12.9514C56.088 14.2383 55.8104 15.3454 55.2553 16.2727C54.7002 17.1937 53.8959 17.9002 52.8424 18.3923C51.7952 18.8843 50.5273 19.1303 49.0386 19.1303H43.9194V15.8375H48.3762C49.1584 15.8375 49.8082 15.7302 50.3254 15.5157C50.8427 15.3013 51.2275 14.9795 51.4798 14.5506C51.7385 14.1216 51.8678 13.5886 51.8678 12.9514C51.8678 12.308 51.7385 11.7655 51.4798 11.3239C51.2275 10.8823 50.8396 10.548 50.316 10.3209C49.7987 10.0875 49.1458 9.9708 48.3573 9.9708H45.5943V26H41.4971ZM51.9624 17.1811L56.7787 26H52.2557L47.5435 17.1811H51.9624Z" fill="#C9942B"/>
<path d="M72.4578 11.4659L67.3766 26H62.8346L57.7534 11.4659H62.0114L65.0299 21.865H65.1813L68.1903 11.4659H72.4578ZM80.6759 26.2839C79.1808 26.2839 77.8939 25.9811 76.8152 25.3755C75.7428 24.7636 74.9165 23.8994 74.3361 22.7828C73.7558 21.6599 73.4656 20.3321 73.4656 18.7992C73.4656 17.3041 73.7558 15.992 74.3361 14.8628C74.9165 13.7337 75.7334 12.8537 76.7869 12.2228C77.8466 11.592 79.0894 11.2766 80.515 11.2766C81.4739 11.2766 82.3665 11.4312 83.1929 11.7403C84.0255 12.0431 84.751 12.5004 85.3692 13.1123C85.9937 13.7242 86.4794 14.4938 86.8264 15.4211C87.1733 16.3421 87.3468 17.4208 87.3468 18.6572V19.7643H75.0742V17.2663H83.5524C83.5524 16.6859 83.4263 16.1718 83.1739 15.7239C82.9216 15.276 82.5715 14.9259 82.1236 14.6736C81.682 14.4149 81.1679 14.2856 80.5813 14.2856C79.9694 14.2856 79.4268 14.4276 78.9537 14.7114C78.4869 14.989 78.121 15.3643 77.8561 15.8375C77.5912 16.3043 77.4555 16.8247 77.4492 17.3987V19.7738C77.4492 20.4929 77.5817 21.1143 77.8466 21.6379C78.1179 22.1614 78.4995 22.5652 78.9916 22.849C79.4836 23.1329 80.0671 23.2748 80.7421 23.2748C81.19 23.2748 81.6 23.2118 81.9722 23.0856C82.3444 22.9594 82.663 22.7702 82.9279 22.5179C83.1929 22.2655 83.3947 21.9564 83.5335 21.5906L87.2617 21.8366C87.0724 22.7323 86.6845 23.5146 86.0978 24.1832C85.5174 24.8456 84.7668 25.3629 83.8458 25.7351C82.9311 26.1009 81.8744 26.2839 80.6759 26.2839ZM102.07 15.6104L98.3799 15.8375C98.3168 15.522 98.1812 15.2382 97.973 14.9858C97.7649 14.7272 97.4904 14.5222 97.1498 14.3708C96.8155 14.2131 96.4149 14.1342 95.9481 14.1342C95.3236 14.1342 94.7968 14.2667 94.3679 14.5316C93.9389 14.7903 93.7244 15.1372 93.7244 15.5725C93.7244 15.9195 93.8632 16.2128 94.1408 16.4525C94.4183 16.6922 94.8946 16.8846 95.5696 17.0297L98.2001 17.5596C99.6132 17.8498 100.667 18.3166 101.361 18.96C102.054 19.6035 102.401 20.4488 102.401 21.4959C102.401 22.4485 102.121 23.2843 101.559 24.0034C101.004 24.7226 100.241 25.284 99.2694 25.6877C98.3042 26.0852 97.1908 26.2839 95.9292 26.2839C94.0051 26.2839 92.4723 25.8833 91.3305 25.0822C90.195 24.2747 89.5295 23.1771 89.3339 21.7893L93.2986 21.5811C93.4185 22.1678 93.7087 22.6156 94.1692 22.9247C94.6297 23.2275 95.2195 23.3789 95.9386 23.3789C96.6451 23.3789 97.2129 23.2433 97.6418 22.9721C98.0771 22.6945 98.2979 22.3381 98.3042 21.9028C98.2979 21.5369 98.1433 21.2373 97.8405 21.0039C97.5378 20.7642 97.0709 20.5812 96.4401 20.4551L93.9231 19.9536C92.5038 19.6697 91.4472 19.1777 90.7533 18.4774C90.0657 17.7772 89.7219 16.8846 89.7219 15.7996C89.7219 14.866 89.9742 14.0617 90.4789 13.3867C90.9898 12.7117 91.7058 12.1913 92.6268 11.8254C93.5541 11.4595 94.6391 11.2766 95.8818 11.2766C97.7175 11.2766 99.1621 11.6646 100.216 12.4405C101.275 13.2164 101.894 14.273 102.07 15.6104ZM112.67 11.4659V14.4938H103.918V11.4659H112.67ZM105.905 7.98371H109.936V21.5338C109.936 21.906 109.993 22.1961 110.106 22.4043C110.22 22.6062 110.377 22.7481 110.579 22.8301C110.787 22.9121 111.027 22.9531 111.298 22.9531C111.488 22.9531 111.677 22.9374 111.866 22.9058C112.055 22.868 112.2 22.8396 112.301 22.8207L112.935 25.8202C112.733 25.8833 112.45 25.9558 112.084 26.0378C111.718 26.1262 111.273 26.1798 110.75 26.1987C109.778 26.2366 108.926 26.1072 108.195 25.8108C107.469 25.5143 106.905 25.0538 106.501 24.4293C106.097 23.8047 105.899 23.0162 105.905 22.0637V7.98371Z" fill="black"/>
</g>
<defs>
<clipPath id="clip0_39_4">
<rect width="126.302" height="29.8434" fill="white"/>
</clipPath>
</defs>
</svg>
