<svg width="70" height="70" viewBox="0 0 70 70" fill="none" xmlns="http://www.w3.org/2000/svg">
<path d="M61.3847 57.9381C61.3847 57.9381 54.5032 46.1111 53.2689 43.9899C54.6733 43.5615 56.1693 43.1832 56.7909 42.1099C57.8269 40.3215 55.9829 37.3877 56.4671 35.4707C56.9659 33.4978 59.9104 31.7907 59.9104 29.7853C59.9104 27.8315 56.8662 25.549 56.3671 23.5876C55.8795 21.671 57.718 18.734 56.6787 16.9478C55.6394 15.1614 52.1776 15.3082 50.7526 13.9369C49.2864 12.5258 49.2909 9.07331 47.5224 8.12766C45.7468 7.17849 42.8609 9.09677 40.8893 8.64237C38.9402 8.19317 37.1989 5.25854 35.163 5.25854C33.0969 5.25854 29.8108 8.58742 29.2954 8.70722C27.3249 9.1653 24.4353 7.25171 22.6615 8.2049C20.8946 9.15373 20.9055 12.6066 19.442 14.02C18.0193 15.3938 14.5574 15.2534 13.5213 17.0418C12.4853 18.8299 14.3294 21.763 13.8453 23.6809C13.3599 25.6037 10.3129 27.552 10.3129 29.7757C10.3129 31.7813 13.2648 33.4831 13.7666 35.455C14.2543 37.3716 12.4158 40.3082 13.4551 42.0951C14.0209 43.0678 15.3047 43.467 16.5868 43.8509C16.7364 43.8956 17.0194 44.063 16.8277 44.3423C15.9506 45.8563 8.8909 58.0403 8.8909 58.0403C8.32927 59.0094 8.78534 59.8401 9.90407 59.8872L15.3801 60.1156C16.4988 60.1627 17.9022 60.9756 18.4994 61.9228L21.4214 66.5595C22.0186 67.5067 22.9661 67.4889 23.5275 66.52C23.5275 66.52 31.7034 52.4046 31.7068 52.4006C31.8708 52.2089 32.0357 52.2483 32.1146 52.3153C33.0091 53.077 34.2562 53.8368 35.297 53.8368C36.3177 53.8368 37.2629 53.1216 38.1978 52.3239C38.2739 52.259 38.459 52.1261 38.5944 52.4019C38.5966 52.4063 46.7634 66.4444 46.7634 66.4444C47.3264 67.4122 48.2741 67.4286 48.8694 66.4803L51.7832 61.838C52.3787 60.8902 53.7806 60.074 54.8993 60.0253L60.3748 59.7867C61.4931 59.7376 61.9476 58.9057 61.3847 57.9381ZM44.2128 45.241C38.1583 48.7634 30.8908 48.3859 25.3399 44.8847C17.2062 39.6747 14.5299 28.8973 19.4195 20.458C24.3649 11.9213 35.236 8.90911 43.8496 13.6003C43.8948 13.625 43.9396 13.6504 43.9845 13.6756C44.0483 13.7109 44.112 13.7468 44.1755 13.783C46.8328 15.315 49.1371 17.5386 50.7871 20.3747C55.8301 29.043 52.881 40.1981 44.2128 45.241Z" fill="#C9942B"/>
<path d="M42.8271 16.3341C42.802 16.3195 42.7765 16.3059 42.7514 16.2915C38.1501 13.6285 32.2856 13.4338 27.3705 16.2934C20.0767 20.5367 17.5948 29.9227 21.8382 37.2163C23.133 39.442 24.9074 41.2187 26.9545 42.4937C27.1286 42.604 27.3047 42.7124 27.4846 42.8166C34.7862 47.0467 44.1672 44.5479 48.3971 37.2466C52.6269 29.9449 50.1287 20.5642 42.8271 16.3341ZM44.6537 28.2705L42.0971 30.7624C41.3053 31.5342 40.8103 33.0575 40.9975 34.1474L41.601 37.6661C41.788 38.756 41.1402 39.2267 40.1614 38.7121L37.0012 37.0507C36.0224 36.5362 34.4208 36.5362 33.442 37.0507L30.282 38.7121C29.3032 39.2267 28.6553 38.756 28.8423 37.6661L29.4458 34.1474C29.6328 33.0575 29.1378 31.5342 28.346 30.7624L25.7895 28.2705C24.9975 27.4987 25.2451 26.737 26.3394 26.5779L29.8724 26.0645C30.9666 25.9055 32.2624 24.964 32.7519 23.9725L34.3318 20.7711C34.8213 19.7796 35.6221 19.7796 36.1114 20.7711L37.6915 23.9725C38.181 24.964 39.4766 25.9055 40.5711 26.0645L44.104 26.5779C45.1981 26.737 45.4456 27.4987 44.6537 28.2705Z" fill="#C9942B"/>
</svg>
